<?xml version="1.0" encoding="UTF-8"?>
<svg version="1.1" xmlns="http://www.w3.org/2000/svg" width="18" height="18">
<path d="M0 0 C3.26954202 0.56371414 4.82575883 1.49962266 7 4 C7.5775 3.71125 8.155 3.4225 8.75 3.125 C10.83333333 2.08333333 12.91666667 1.04166667 15 0 C15.66 1.32 16.32 2.64 17 4 C15.68 5.32 14.36 6.64 13 8 C13.433125 8.86625 13.433125 8.86625 13.875 9.75 C14.91666667 11.83333333 15.95833333 13.91666667 17 16 C15.02 16.99 15.02 16.99 13 18 C11.68 16.68 10.36 15.36 9 14 C8.13375 14.433125 8.13375 14.433125 7.25 14.875 C5.16666667 15.91666667 3.08333333 16.95833333 1 18 C0.34 16.68 -0.32 15.36 -1 14 C0.32 12.68 1.64 11.36 3 10 C1.84826645 7.53199953 0.95216435 5.95216435 -1 4 C-0.625 1.875 -0.625 1.875 0 0 Z " fill="#FFFFFF" transform="translate(1,0)"/>
</svg>
