<?xml version="1.0" encoding="UTF-8"?><svg id="a" xmlns="http://www.w3.org/2000/svg" viewBox="0 0 311.41 130.86"><defs><style>.c{fill:#e04e62;}.d{fill:#353d4f;}.e{fill:#82889d;}</style></defs><g id="b"><path class="c" d="M30.7,46.56c-.1,21.95,15.7,29.35,31.5,29.4,.1-21.95-15.7-29.35-31.5-29.4Z"/><path class="c" d="M92.1,51.66c.05,18.1-12.95,24.2-26,24.25-.1-18.1,12.95-24.15,26-24.25Z"/><path class="c" d="M37.6,102.76c-.1-17.15,12.25-22.9,24.6-22.95,.1,17.2-12.25,22.9-24.6,22.95Z"/><path class="c" d="M82.45,95.06c.05-11.4-8.15-15.2-16.35-15.25-.05,11.4,8.15,15.25,16.35,15.25Z"/><path class="d" d="M156.8,63.26c-6.45-.35-9.65,3.9-10.2,4.25s-1.05,0-1.25-.75l-.9-2.65h-4.05v30.9h6.55v-16.65c-.15-4.6,3.45-8.45,8.05-8.6h.1c3.3,0,6.55,1.7,6.55,6.5v18.75h6.55v-19.45c0-8.3-4.95-12-11.4-12.3Z"/><path class="d" d="M201.55,78.61c-.15-2.95-.95-5.85-2.45-8.4-2.6-4.7-7.75-7.4-13.1-6.9-5.45,.3-10.2,3.7-12.25,8.75-1.1,2.65-1.55,5.55-1.3,8.45,.15,2.9,1,5.75,2.5,8.25,1.4,2.3,3.45,4.2,5.9,5.4,4.75,2.15,10.25,2.05,14.9-.25,1.85-.95,3.45-2.4,4.6-4.2l-3.9-4.3c-1.75,2.4-4.5,3.85-7.5,4-2.2,.25-4.45-.35-6.3-1.65-1.75-1.3-3-3.15-3.45-5.3l22.35-1.55c.05-1.05,.05-1.75,0-2.3Zm-22.7-1.1c.05-2.15,.9-4.2,2.3-5.75,1.35-1.5,3.25-2.4,5.25-2.5,2-.2,4.05,.45,5.6,1.75,1.6,1.4,2.65,3.3,3,5.4l-16.15,1.1Z"/><path class="d" d="M234.9,78.61c-.15-2.95-.95-5.85-2.45-8.4-2.6-4.7-7.75-7.4-13.1-6.9-5.45,.3-10.2,3.7-12.25,8.75-1.1,2.65-1.55,5.55-1.3,8.45,.15,2.9,1,5.75,2.5,8.25,1.4,2.35,3.5,4.2,5.95,5.35,4.75,2.15,10.25,2.05,14.95-.25,1.85-.95,3.45-2.4,4.55-4.2l-3.9-4.3c-1.75,2.4-4.5,3.85-7.5,4-2.25,.2-4.45-.35-6.3-1.6-1.75-1.3-3-3.15-3.45-5.3l22.35-1.55c0-1.05-.05-1.75-.05-2.3Zm-22.7-1.1c.05-2.15,.9-4.2,2.3-5.8,1.35-1.5,3.25-2.4,5.25-2.5,2-.2,4.05,.45,5.6,1.75,1.6,1.4,2.65,3.3,3,5.4l-16.15,1.15Z"/><rect class="d" x="239.35" y="51.66" width="6.55" height="43.3"/><path class="d" d="M273.35,65.36c-4.85-2.75-10.8-2.75-15.65,0-2.3,1.4-4.15,3.35-5.4,5.75-1.35,2.6-2,5.45-1.95,8.35-.05,2.9,.6,5.8,1.95,8.4,1.25,2.4,3.1,4.4,5.4,5.75,4.85,2.75,10.8,2.75,15.65,0,2.3-1.4,4.2-3.4,5.4-5.75,1.35-2.6,2-5.5,1.95-8.4,.05-2.9-.6-5.75-1.95-8.35-1.25-2.4-3.1-4.4-5.4-5.75Zm-1.75,21.25c-1.5,1.75-3.75,2.8-6.05,2.75-2.35,.05-4.55-.95-6.05-2.75-1.55-1.8-2.4-4.2-2.4-7.15s.8-5.4,2.35-7.2c2.95-3.35,8.1-3.65,11.45-.7,.25,.2,.5,.45,.7,.7,1.6,1.8,2.4,4.2,2.4,7.2s-.85,5.35-2.4,7.15Z"/><polygon class="d" points="128.25 64.06 121.2 73.96 114.15 64.06 106.15 64.06 117.6 79.51 106.15 94.96 114.15 94.96 121.2 85.11 128.25 94.96 136.2 94.96 124.85 79.51 136.2 64.06 128.25 64.06"/></g><g><path class="e" d="M114.86,28.69v9.8h-1.82v-4.2h-5.07v4.2h-1.82v-9.8h1.82v4.05h5.07v-4.05h1.82Z"/><path class="e" d="M118.64,38.1c-.61-.33-1.08-.78-1.42-1.36-.34-.58-.51-1.24-.51-1.98s.17-1.4,.51-1.97,.81-1.03,1.42-1.36c.61-.33,1.29-.49,2.04-.49s1.45,.16,2.06,.49c.61,.33,1.08,.78,1.42,1.36s.51,1.24,.51,1.97-.17,1.4-.51,1.98c-.34,.58-.81,1.04-1.42,1.36-.61,.33-1.29,.49-2.06,.49s-1.44-.16-2.04-.49Zm3.64-1.65c.42-.43,.63-.99,.63-1.69s-.21-1.26-.63-1.69c-.42-.43-.95-.64-1.6-.64s-1.17,.21-1.59,.64c-.42,.43-.62,.99-.62,1.69s.21,1.26,.62,1.69c.42,.43,.94,.64,1.59,.64s1.18-.21,1.6-.64Z"/><path class="e" d="M126.88,38.35c-.58-.16-1.04-.36-1.39-.6l.67-1.33c.34,.22,.74,.4,1.21,.54,.47,.14,.94,.2,1.39,.2,1.05,0,1.57-.27,1.57-.83,0-.26-.13-.44-.4-.55-.27-.1-.69-.2-1.28-.29-.62-.09-1.12-.2-1.5-.32-.39-.12-.72-.33-1.01-.64-.28-.3-.43-.73-.43-1.27,0-.71,.3-1.28,.89-1.7,.59-.42,1.39-.64,2.4-.64,.51,0,1.03,.06,1.54,.18,.51,.12,.93,.27,1.26,.47l-.67,1.33c-.63-.37-1.35-.56-2.14-.56-.51,0-.9,.08-1.17,.23s-.4,.36-.4,.61c0,.28,.14,.48,.43,.6s.73,.23,1.32,.33c.6,.09,1.09,.2,1.47,.32,.38,.12,.71,.33,.99,.62,.27,.29,.41,.7,.41,1.23,0,.7-.3,1.26-.91,1.68-.61,.42-1.43,.63-2.48,.63-.61,0-1.2-.08-1.78-.24Z"/><path class="e" d="M138.05,38.08c-.21,.17-.46,.29-.75,.38s-.6,.13-.93,.13c-.82,0-1.46-.21-1.9-.64-.45-.43-.67-1.05-.67-1.88v-3.6h-1.23v-1.4h1.23v-1.71h1.75v1.71h2v1.4h-2v3.56c0,.36,.09,.64,.27,.83s.43,.29,.77,.29c.39,0,.72-.1,.98-.31l.49,1.25Z"/><path class="e" d="M146.24,35.31h-5.87c.1,.55,.37,.99,.8,1.31,.43,.32,.97,.48,1.62,.48,.82,0,1.5-.27,2.03-.81l.94,1.08c-.34,.4-.76,.71-1.27,.91-.51,.21-1.09,.31-1.74,.31-.82,0-1.54-.16-2.17-.49-.63-.33-1.11-.78-1.45-1.36-.34-.58-.51-1.24-.51-1.98s.17-1.38,.5-1.97c.33-.58,.79-1.04,1.38-1.36,.59-.33,1.25-.49,1.99-.49s1.38,.16,1.95,.48c.57,.32,1.02,.77,1.34,1.36,.32,.58,.48,1.26,.48,2.02,0,.12,0,.29-.03,.52Zm-5.17-2.48c-.39,.33-.62,.77-.71,1.32h4.24c-.07-.54-.3-.98-.69-1.32-.38-.34-.86-.5-1.43-.5s-1.03,.17-1.42,.5Z"/><path class="e" d="M155.27,28.1v10.39h-1.68v-.97c-.29,.35-.65,.62-1.07,.8-.43,.18-.89,.27-1.41,.27-.72,0-1.37-.16-1.94-.48-.57-.32-1.02-.77-1.35-1.35-.33-.58-.49-1.25-.49-2.01s.16-1.42,.49-2c.33-.58,.78-1.03,1.35-1.34,.57-.32,1.22-.48,1.94-.48,.49,0,.95,.08,1.36,.25s.76,.42,1.05,.76v-3.84h1.75Zm-2.81,8.7c.34-.19,.6-.46,.8-.82,.2-.35,.29-.77,.29-1.23s-.1-.88-.29-1.23c-.2-.35-.46-.63-.8-.82-.34-.19-.71-.29-1.13-.29s-.8,.1-1.13,.29c-.34,.19-.6,.46-.8,.82-.2,.35-.29,.77-.29,1.23s.1,.88,.29,1.23c.2,.35,.46,.63,.8,.82,.34,.19,.71,.29,1.13,.29s.8-.1,1.13-.29Z"/><path class="e" d="M167.53,31.4c.57,.32,1.02,.77,1.35,1.34,.33,.58,.49,1.25,.49,2s-.16,1.43-.49,2.01c-.33,.58-.78,1.03-1.35,1.35s-1.22,.48-1.95,.48c-.51,0-.98-.09-1.41-.27s-.78-.44-1.07-.8v.97h-1.67v-10.39h1.75v3.82c.3-.33,.65-.57,1.06-.74s.85-.25,1.34-.25c.73,0,1.38,.16,1.95,.48Zm-.56,5.04c.42-.43,.62-.99,.62-1.69s-.21-1.26-.62-1.69c-.42-.43-.95-.64-1.59-.64-.42,0-.8,.1-1.13,.29-.34,.19-.6,.46-.8,.82-.2,.35-.29,.77-.29,1.23s.1,.88,.29,1.23,.46,.63,.8,.82,.71,.29,1.13,.29c.64,0,1.17-.21,1.59-.64Z"/><path class="e" d="M177.83,31.01l-3.5,8.08c-.33,.81-.72,1.38-1.19,1.71-.47,.33-1.03,.5-1.69,.5-.37,0-.74-.06-1.11-.18-.36-.12-.66-.29-.9-.5l.7-1.29c.17,.16,.37,.28,.59,.38s.46,.14,.69,.14c.31,0,.56-.08,.76-.24,.2-.16,.38-.42,.55-.8l.13-.29-3.26-7.5h1.82l2.35,5.53,2.37-5.53h1.68Z"/></g></svg>